Patient4_TMGait_0pt5_02_left_21_EMG.mot
version=1
nRows=29
nColumns=33
inDegrees=no
endheader
time	1LAddLong	2LGlutMax	3LGlutMed	4LIliopsoas	5LSemiMemb	6LBicFemLong	7LRecFem	8LVastMed	9LVastLat	10LGasMed	11LTibAnt	12lTibPost	13LPeroneusLong	14LSol	15LExtDigLong	16LFlexDigLong	17RAddLong	18RGlutMax	19RGlutMed	20RIliopsoas	21RSemiMemb	22RBicFemLong	23RRecFem	24RVastMed	25RVastLat	26RGasMed	27RTibAnt	28RTibPost	29RPeroneusLong	30RSol	31RExtDigLong	32RFlexDigLong
27.97	-0.05188	-0.33814	0.007629	0.015259	0.002441	0.006561	-0.020905	-0.001831	0.008392	-0.022888	0.033112	-0.007782	-0.045166	0.0383	0.000305	0.043182	0.009918	-0.21225	-0.35034	-0.03952	-0.005798	-0.029449	0.16922	-0.13779	0.19943	-0.016022	0.33371	-0.003967	-0.068817	0.098724	-0.006409	-0.019684
27.971	-0.003967	-0.36926	0.04715	0.008698	0.017548	0.007019	-0.021057	0.00824	0.003204	-0.036774	0.049438	-0.009155	-0.033722	0.022125	0.002441	0.036774	0.018921	-0.27985	-0.34973	-0.014343	-0.023804	0.026245	0.2182	-0.097809	0.15411	-0.013275	0.42602	-0.002136	-0.096893	0.11429	-0.007935	-0.010681
27.972	-0.020447	-0.34958	0.059967	0.011139	0.013885	0.018005	-0.015411	0.005646	0.004883	-0.032806	0.063171	-0.027161	-0.037842	0.017853	0	0.038605	0.015106	-0.28091	-0.23285	0.001068	-0.10223	0.047302	0.032196	-0.17578	0.005951	-0.000305	0.46753	-0.002289	-0.055542	0.057373	-0.016479	-0.00946
27.973	0.022736	-0.36896	0.005188	0.016174	0.006409	0.013123	-0.020447	0.002136	0.007629	-0.039673	0.038605	-0.014343	-0.031433	0.000916	0.004883	0.039673	0.006561	-0.22263	-0.072937	0.030823	0.005035	0.050507	0.039215	-0.092773	0.027008	0.005188	0.47958	-0.001068	0.059509	0.11063	-0.016174	-0.00946
27.974	-0.001984	-0.39002	-0.039215	0.01297	0.017853	0.021362	-0.040741	0.007019	0.004883	-0.045013	-0.036316	-0.028534	-0.016632	-0.027466	-0.005951	0.037842	0.013275	-0.20767	-0.049744	0.005951	-0.028381	0.098877	0.24506	0.064087	0.066528	-0.011749	0.87723	-0.005493	-0.019836	0.17883	-0.010071	-0.015259
27.975	-0.004883	-0.33295	-0.053253	0.000763	0.018158	0.019684	-0.066071	0.004578	-0.001831	-0.027924	-0.032501	-0.024109	-0.027008	-0.061035	0.016785	0.033112	-0.003662	-0.18326	-0.14481	-0.002289	-0.032196	0.11093	0.39917	0.2359	-0.003662	-0.017395	0.15961	-0.001373	-0.12909	0.18448	-0.00473	-0.008392
27.976	0.007172	-0.33859	0.031891	0.006714	0.011597	0.019684	-0.080872	0	0.001526	-0.022583	-0.005188	-0.027618	-0.046692	-0.062103	0.035553	0.025177	-0.009766	-0.23041	-0.48889	0.000305	0.089111	0.044403	0.041962	0.16159	0.044708	-0.019226	-0.31387	-0.002136	-0.18478	0.1001	-0.016479	-0.013885
27.977	-0.005951	-0.33493	0.098877	0.018005	0.001068	-0.019226	-0.075531	0.014038	0.004272	-0.023041	-0.014954	-0.025482	-0.050812	-0.069885	0.053101	0.057526	-0.003357	-0.22919	-0.3714	-0.053406	0.071716	-0.041504	-0.26459	0.1062	0.000763	-0.006256	-0.031281	-0.001984	-0.21423	0.007324	-0.020905	-0.011902
27.978	0.002136	-0.34164	0.06485	0.012207	0.012054	-0.040131	-0.076904	0.009155	0.006561	-0.029602	-0.001984	-0.024414	-0.041656	-0.052338	-0.015564	-0.048218	0.004578	-0.23544	-0.34729	-0.016479	0.014954	-0.089874	-0.1088	0.062103	-0.071259	-0.013885	0.38238	-0.000916	-0.18677	-0.036774	-0.012207	-0.014343
27.979	0.004272	-0.32379	0.023651	0.004425	-0.0354	-0.049133	-0.073395	0.009918	0.010223	-0.022125	0.050964	-0.025787	-0.040588	-0.048218	-0.062256	0.014038	0.012512	-0.21561	-0.26947	-0.033112	-0.039673	-0.098572	-0.15198	-0.018311	0.071716	-0.013733	0.46509	-0.00351	-0.076904	-0.022736	-0.017395	-0.011139
27.98	0.005951	-0.32349	0.004883	0.013275	-0.029907	-0.050354	-0.082397	0.00473	0	-0.028534	0.11475	-0.037994	-0.023346	-0.022278	-0.040741	-0.050201	0.023346	-0.22553	-0.3978	-0.11063	-0.11093	-0.083313	-0.11505	0.04837	0.25162	-0.012817	0.41641	0.002441	-0.092773	-0.044708	-0.01709	-0.010681
27.981	-0.006561	-0.32837	0.025635	0.010529	-0.035858	-0.050964	-0.080414	-0.001831	0.012207	-0.035706	0.14084	-0.021667	-0.024719	-0.042114	-0.012512	-0.1059	0.038147	-0.25284	-0.67123	-0.10651	-0.10696	-0.090485	0.26932	0.019073	0.15411	-0.019531	0.17639	-0.000916	-0.11139	-0.057983	-0.024719	-0.014801
27.982	0.002136	-0.34012	0.028992	0.003815	-0.0383	-0.055847	-0.099335	0.007629	0.019836	-0.041962	0.082092	-0.011444	-0.005341	-0.076294	-0.013123	0.051575	0.040588	-0.24551	-0.48599	-0.044861	0.000458	-0.061035	0.49927	-0.044556	0.031128	-0.015717	-0.78934	-0.001526	-0.095062	-0.083618	-0.010071	-0.013885
27.983	0.006256	-0.33173	-0.01297	0.002899	0.016022	-0.082855	-0.11108	0.007782	0.032806	-0.037231	-0.037079	-0.022583	0.013733	-0.14221	-0.003662	-0.15182	0.023804	-0.26367	-0.37567	0.020752	0.063019	-0.037384	0.46341	-0.14908	-0.089874	-0.009155	-1.2555	-0.002136	-0.075989	-0.16037	-0.02182	-0.010986
27.984	0.007019	-0.32776	-0.034943	0.00473	0.059509	-0.048523	-0.13992	0.001526	0.025482	-0.042572	-0.12528	-0.024719	0.021667	-0.14206	0.016937	-0.036469	0.011292	-0.2858	-0.47852	0.11856	0.016022	0.017242	0.3595	-0.20309	-0.039215	0.00351	-0.20477	-0.000305	0.078735	-0.20584	-0.01709	-0.010834
27.985	0.009918	-0.31113	-0.047607	0.01709	0.036621	-0.011597	-0.10971	0.000153	0.024109	-0.037231	-0.13641	-0.012207	0.02594	-0.084534	-0.00061	0.22537	-0.00412	-0.27924	-0.51239	0.11307	0.089874	0.024567	0.27725	-0.28168	0.005341	0.000153	0.7663	-0.003662	0.20493	-0.24857	-0.0177	-0.009613
27.986	0.015106	-0.32044	-0.005035	0.005188	0.023041	-0.024872	-0.11826	-0.004578	0.018463	-0.029755	-0.078888	-0.028992	-0.015564	-0.007324	-0.020142	0.050049	0.000763	-0.29205	-0.53925	-0.035095	0.097809	0.007172	0.17044	-0.18158	0.019073	-0.005341	1.1226	-0.003204	-0.050354	-0.19836	-0.016479	-0.014954
27.987	0.016785	-0.28824	-0.010071	0.019531	0.004425	-0.008392	-0.13306	-0.001221	0.013733	-0.039368	-0.019684	-0.024567	-0.011444	0.088654	0.014801	0.054474	-0.006561	-0.29205	-0.47546	0.005341	0.041962	0.001526	-0.3418	-0.26169	-0.071716	-0.010071	0.93552	-0.006256	-0.20432	-0.12589	-0.019226	-0.023804
27.988	-0.000763	-0.30014	-0.014038	0.018311	-0.004425	0.002747	-0.14191	-0.000763	0.015564	-0.036316	0.063934	-0.032043	-0.018158	0.038452	0.048828	-0.095215	0.009918	-0.3006	-0.33096	0.020294	0.028992	0.001526	-0.43228	0.02243	0.056152	-0.00946	-0.062103	-0.002594	-0.18219	-0.16205	-0.016327	-0.019531
27.989	0.002747	-0.27786	-0.025024	-0.009613	0.000458	-0.002136	-0.14084	-0.009003	0.002441	-0.037842	0.005951	-0.014496	0.001221	-0.062103	0.052032	-0.037384	0.009308	-0.23956	-0.31143	-0.034637	0.019226	0.014496	-0.26733	0.18433	0.11047	-0.005341	-0.55969	-0.001068	0.027008	-0.17395	-0.012817	-0.017548
27.99	-0.003662	-0.26825	-0.032349	0.007782	0.003204	-0.000153	-0.14603	-0.006561	0.010223	-0.033112	-0.068207	-0.016022	0.03891	-0.072327	0.029144	-0.032806	0.032043	-0.24323	-0.3598	-0.077057	-0.002747	-0.037231	-0.066528	0.39734	0.030365	-0.002747	-0.42084	-0.00061	0.26276	-0.25223	-0.013885	-0.017395
27.991	0.011749	-0.23438	0.010223	0.019836	-0.006714	0.01297	-0.17059	0.001526	0.010681	-0.022278	-0.054932	-0.016327	0.016022	-0.14526	-0.004272	0.1091	0.033722	-0.23941	-0.36697	-0.059204	-0.000458	-0.029297	-0.10284	0.24643	0.11581	-0.002289	-0.53772	0.000763	0.24521	-0.3624	-0.019684	-0.019684
27.992	0.006256	-0.15091	-0.0177	0.015411	-0.015869	0.020752	-0.19501	-0.005188	0.002441	-0.027924	-0.012207	-0.046844	0.013885	-0.18173	-0.041504	-0.008545	0.015259	-0.2034	-0.045166	-0.065918	0.016632	0.002594	-0.072632	0.085602	0.22614	-0.007935	-0.41962	-0.005646	0.10483	-0.34592	-0.02182	-0.009155
27.993	0.005493	-0.1236	-0.036316	0.027618	0.009308	0.014038	-0.19608	-0.002289	0.002747	-0.027313	-0.001984	-0.033417	0.018005	-0.046997	-0.046997	-0.096436	-0.005493	-0.20172	0.055389	-0.003052	0.016785	0.014191	0.20401	0.16251	0.4924	-0.018005	0.6131	-0.002136	-0.057373	-0.29068	-0.015564	-0.011749
27.994	0.003204	-0.13092	-0.03891	0.014648	0.018311	0.039063	-0.20264	-0.00061	0.010529	-0.028687	0.011292	-0.032501	0.031281	-0.052795	-0.050964	-0.034943	0.010071	-0.27161	-0.013885	-0.007324	0.002594	-0.02533	0.26901	-0.060272	0.39078	-0.011902	1.6092	-0.002747	0.006104	-0.21805	-0.021667	-0.00885
27.995	0.00473	-0.15778	-0.024567	-0.001526	-0.007935	0.038147	-0.2034	0.000458	0.014038	-0.034485	0.032196	-0.019531	0.030823	-0.11795	-0.059509	-0.027771	0.006561	-0.33417	-0.23605	0.015411	-0.00412	-0.042877	0.27405	0.1329	0.21576	-0.010681	1.8268	-0.000916	-0.1413	-0.11627	-0.021362	-0.004578
27.996	0.005951	-0.1799	0.010986	-0.003815	-0.008392	0.053558	-0.20432	0.000763	0.016632	-0.048981	0.046387	-0.019379	0.021973	-0.091705	0.015259	-0.020905	0.012817	-0.37628	-0.20096	0.02243	0.005798	-0.061646	0.18127	0.25497	0.08728	0.010071	0.33478	-0.00351	0.052185	-0.2385	-0.020294	0.002136
27.997	0.005188	-0.14862	-0.006104	0.0177	0.021973	0.0383	-0.23422	0.001373	0.019226	-0.054016	0.001373	-0.025635	0.033569	-0.11826	0.073242	-0.030212	0.015259	-0.33081	-0.31525	0.11459	-0.006104	-0.071716	0.1976	0.075684	0.15213	0.02243	-0.000458	0.006714	0.25848	-0.31937	-0.018463	0.007629
27.998	0.00412	-0.095673	-0.01358	0.005798	-0.006409	0.053406	-0.23193	-0.002136	0.033875	-0.05661	-0.058441	-0.017242	0.039978	-0.23834	0.04776	-0.021362	-0.004578	-0.2771	-0.17487	0.17609	0.020905	-0.023346	-0.21988	0.020599	0.1442	0.015411	-0.22553	-0.002747	0.12329	-0.2269	-0.019836	-0.000458
